<svg width="120" height="120" viewBox="0 0 120 120" fill="none" xmlns="http://www.w3.org/2000/svg">
<rect width="120" height="120" rx="60" fill="white"/>
<mask id="mask0_556_2154" style="mask-type:luminance" maskUnits="userSpaceOnUse" x="19" y="32" width="82" height="56">
<path d="M100.087 32H19V87.5305H100.087V32Z" fill="white"/>
</mask>
<g mask="url(#mask0_556_2154)">
<path d="M65.2054 75.2803C65.9849 76.0357 65.9875 77.2746 65.208 78.0327L56.8672 86.1536C56.0903 86.9115 54.5514 87.5311 53.4488 87.5311H42.7095C41.6069 87.5311 41.3511 86.9213 42.1431 86.1779L58.1078 71.1529C58.8998 70.4071 60.1854 70.4169 60.9649 71.1724L65.2054 75.2827V75.2803Z" fill="#F1C01B"/>
<path d="M74.8614 46.0584C75.6409 46.8139 75.6409 48.0504 74.8614 48.8059L57.7915 65.3516C57.0122 66.1071 55.7364 67.3437 54.9569 68.0992L45.0047 77.7481C44.2253 78.5036 42.9496 79.7402 42.1702 80.4957L36.3307 86.1559C35.5512 86.9114 34.2756 86.9114 33.4961 86.1559L22.3709 75.3723C21.5916 74.6168 20.3284 73.3924 19.564 72.6516C18.7997 71.9107 18.8147 70.6863 19.594 69.9308L25.4336 64.2706C26.2131 63.5151 27.4887 62.2787 28.2682 61.5232L38.2203 51.8741C38.9998 51.1185 40.2754 49.8822 41.0549 49.1267L41.3883 48.8035C42.1678 48.048 43.4434 46.8115 44.2229 46.056L55.3479 35.2725C56.1274 34.517 57.3906 33.2927 58.1549 32.5517C58.9193 31.8109 60.1675 31.8109 60.9318 32.5517C61.6963 33.2927 62.9594 34.517 63.7387 35.2725L74.864 46.056L74.8614 46.0584Z" fill="#8B5CF6"/>
<path d="M99.4997 69.9334C100.279 70.6889 100.292 71.9133 99.5299 72.6541C98.768 73.395 97.5023 74.6194 96.7228 75.3749L85.5977 86.1584C84.8182 86.9139 83.5426 86.9139 82.7632 86.1584L72.7081 76.4122C71.9288 75.6568 70.653 74.4203 69.8737 73.6647L64.1344 68.1018C63.3549 67.3463 63.3549 66.1097 64.1344 65.3542L75.2595 54.5708C76.039 53.8153 77.3021 52.5909 78.0664 51.85C78.8309 51.109 80.0941 51.1236 80.8735 51.8791L99.5023 69.9358L99.4997 69.9334Z" fill="#2AD68E"/>
</g>
</svg>
