<svg width="480" height="107" viewBox="0 0 480 107" fill="none" xmlns="http://www.w3.org/2000/svg">
<path d="M163.205 28.7423H176.517L195.71 84H184.72L180.386 70.5338H158.484L154.77 84H144.012L163.205 28.7423ZM160.419 63.0268H178.297L169.474 35.5527H168.004L160.419 63.0268ZM203.737 27.8136H213.025V84H203.737V27.8136ZM244.472 84C242.77 84.3096 239.596 84.5417 236.81 84.5417C229.69 84.5417 225.666 80.9817 225.666 73.5521V49.8702H220.326V42.6728H225.666V33.6953H234.953V42.6728H244.472V49.8702H234.953V71.7721C234.953 75.7965 236.114 77.1121 240.138 77.1121H244.472V84ZM287.933 64.5747H259.143C259.53 74.326 264.096 77.8087 270.442 77.8087C276.943 77.8087 279.11 75.7965 279.884 71.8495H288.01C287.081 79.7435 280.658 84.9287 270.287 84.9287C258.137 84.9287 249.778 76.9573 249.778 63.3364C249.778 49.7154 258.291 41.7441 269.745 41.7441C282.592 41.7441 288.706 50.025 287.933 64.5747ZM269.978 48.1676C264.328 48.1676 260.458 51.0311 259.452 58.6929H279.419C279.265 51.4181 275.705 48.1676 269.978 48.1676ZM297.688 42.6728H306.433L306.743 53.585H307.13C308.987 46.0006 313.166 42.131 318.739 42.131C319.59 42.131 320.519 42.2084 321.37 42.518V51.2633H316.494C310.458 51.2633 306.975 54.5137 306.975 63.3364V84H297.688V42.6728ZM326.188 63.3364C326.188 49.5607 335.242 41.7441 346.929 41.7441C358.537 41.7441 367.67 49.5607 367.67 63.3364C367.67 77.1121 358.537 84.9287 346.929 84.9287C335.242 84.9287 326.188 77.1121 326.188 63.3364ZM335.939 63.3364C335.939 73.6295 339.886 77.5765 346.929 77.5765C353.894 77.5765 357.918 73.8617 357.918 63.3364C357.918 53.0433 353.894 49.0963 346.929 49.0963C339.886 49.0963 335.939 53.0433 335.939 63.3364ZM374.252 73.4747H384.932V84H374.252V73.4747ZM427.397 84H418.729C418.11 81.9104 417.645 78.7374 417.645 75.3321H417.026C415.324 80.9043 410.912 84.9287 403.947 84.9287C397.524 84.9287 391.874 80.9043 391.874 73.7843C391.874 66.9738 397.291 61.5564 407.739 60.2407L417.026 59.0798V56.9129C417.026 51.2633 414.704 48.7867 408.668 48.7867C403.251 48.7867 401.161 50.6441 400.851 54.5137H392.648C392.957 45.7685 399.69 41.7441 409.519 41.7441C421.825 41.7441 426.158 47.2389 426.158 57.2224V72.4686C426.158 77.5765 426.623 81.2139 427.397 84ZM401.006 72.546C401.006 76.493 403.251 78.273 407.43 78.273C412.847 78.273 417.181 75.1773 417.181 67.3608V64.2651L408.977 65.1164C403.251 65.8129 401.006 68.2895 401.006 72.546ZM438.335 28.5101H447.932V36.6362H438.335V28.5101ZM438.49 42.6728H447.777V84H438.49V42.6728Z" fill="#151418"/>
<g clip-path="url(#clip0_1617_1009)">
<path d="M80.1294 71.8818C81.0425 72.7526 81.0455 74.1804 80.1323 75.054L70.3604 84.4136C69.4502 85.2871 67.6473 86.0011 66.3553 86.0011H53.7734C52.4815 86.0011 52.182 85.2983 53.1098 84.4416L71.8138 67.125C72.7417 66.2655 74.248 66.2767 75.1612 67.1474L80.1294 71.8846V71.8818Z" fill="#F1C01B"/>
<path d="M91.4466 38.2023C92.3598 39.073 92.3598 40.4981 91.4466 41.3688L71.4477 60.4381C70.5345 61.3088 69.0399 62.7339 68.1268 63.6046L56.4669 74.7253C55.5537 75.5961 54.0591 77.0212 53.1459 77.8919L46.3044 84.4153C45.3913 85.2861 43.8967 85.2861 42.9835 84.4153L29.9494 71.9872C29.0362 71.1164 27.5564 69.7053 26.6608 68.8514C25.7652 67.9975 25.7829 66.5864 26.696 65.7157L33.5375 59.1922C34.4507 58.3215 35.9453 56.8964 36.8585 56.0257L48.5184 44.905C49.4316 44.0342 50.9261 42.6091 51.8393 41.7384L52.2298 41.366C53.143 40.4953 54.6376 39.0702 55.5507 38.1995L68.5848 25.7713C69.498 24.9006 70.9779 23.4895 71.8734 22.6356C72.769 21.7816 74.2313 21.7816 75.1268 22.6356C76.0224 23.4895 77.5023 24.9006 78.4154 25.7713L91.4495 38.1995L91.4466 38.2023Z" fill="#8B5CF6"/>
<path d="M120.31 65.7187C121.223 66.5894 121.238 68.0005 120.345 68.8544C119.453 69.7083 117.97 71.1194 117.057 71.9901L104.022 84.4183C103.109 85.2891 101.615 85.2891 100.702 84.4183L88.9213 73.1857C88.0081 72.3149 86.5135 70.8898 85.6003 70.0191L78.8763 63.6076C77.9631 62.7369 77.9631 61.3118 78.8763 60.4411L91.9104 48.0129C92.8236 47.1422 94.3034 45.7311 95.199 44.8772C96.0946 44.0232 97.5744 44.04 98.4876 44.9108L120.313 65.7215L120.31 65.7187Z" fill="#2AD68E"/>
</g>
<defs>
<clipPath id="clip0_1617_1009">
<rect width="95" height="64" fill="white" transform="translate(26 22)"/>
</clipPath>
</defs>
</svg>
